<svg id="Layer_1" data-name="Layer 1" xmlns="http://www.w3.org/2000/svg" viewBox="0 0 1000 1000"><defs><style>.cls-1{fill:#fff;}</style></defs><path class="cls-1" d="M245.84,555.7c-2.28-7.49-8.8-13.35-17.26-13.35-8.15,0-16.94,6.51-18.57,15-1.95,13.35,14.66,19.21,31.27,27.35S273.52,603.9,269.61,628c-4.56,29-32.24,50.48-60.57,50.48-22.15,0-42.34-12.7-47.23-34.2l27-11.4c4.24,11.4,10.43,19.54,24.43,19.54,12.38,0,24.43-8.47,26.7-21.49,1.31-8.14-2.27-12-8.14-16.61L205.45,599c-15.3-9.12-26.38-17.58-23.12-38.43,3.91-24.75,27-44.29,51.78-44.29,18.57,0,31.92,10.1,37.45,26.71Z"/><path class="cls-1" d="M405.41,564.17c-9.44-13.36-22.8-20.52-40.38-20.52-28.66,0-54.71,25.4-59.27,53.41-4.89,31.26,13.35,54.06,44.29,54.06,16.93,0,31.91-7.82,44.94-20.19l-6.19,37.45a94.27,94.27,0,0,1-43.64,10.1c-44.94,0-76.2-34.53-69-80.12,7.49-47.22,49.5-82.07,96.4-82.07,13.68,0,28.33,3.26,38.75,10.1Z"/><path class="cls-1" d="M566,597.38c-7.16,45.92-48.85,81.1-94.44,81.1S396,643.3,403.13,597.38s48.53-81.09,94.12-81.09S573.13,551.47,566,597.38Zm-133.52,0c-4.56,28.66,14.66,53.09,43.64,53.09s56-24.43,60.57-53.09c4.56-29-14.65-53.08-43.64-53.08S437,568.4,432.44,597.38Z"/><path class="cls-1" d="M610.58,545.6h1c10.09-17.91,26.7-29.31,46.24-29.31a40.76,40.76,0,0,1,23.12,7.49l-17.58,26.71c-4.56-4.56-10.1-6.19-16.94-6.19-31.59,0-40.38,29.31-44.29,54.06l-11.72,74.91H561.08l24.1-152.42h29.31Z"/><path class="cls-1" d="M680.92,601.94C677,628,690.7,652.42,718.7,652.42c22.47,0,36.48-11.4,50.48-29.63l22.47,14c-18.56,26.38-47.87,41.69-77.51,41.69-46.57,0-69-35.18-62.2-80.12,7.49-46.89,38.1-82.07,87.28-82.07,48.52,0,65.78,35.83,58.62,81.09l-.65,4.56Zm90.21-22.14c.33-22.8-12.37-38.1-35.82-38.1-22.8,0-42.34,16.28-49.5,38.1Z"/><path class="cls-1" d="M415.53,349.44q-14.5-21.65-43.21-26.7-29-5.1-52.22,11.21t-29.46,46.93l19.94,3.5q6.07-23.73,21.64-34.71t35.51-7.47q19,3.33,29.82,18.31t7.78,32.54a52.59,52.59,0,0,1-11.92,25.12c-6.33,7.5-26.17,25.42-35,34.09-8.49,8.32-73.68,80.47-73.68,80.47h0c12.24-7.22,75.49-60,86.33-68.52s32.79-26.86,40.26-36.2a69.29,69.29,0,0,0,14.3-31.71Q430,371.1,415.53,349.44Z"/><path class="cls-1" d="M580.56,326.26h0l-94.41.16a31.46,31.46,0,0,0-29.64,21.12l-22.28,64.08q28.06-6.83,46.5-3.76a66,66,0,0,1,8.33,1.91q13.85-5.81,26.61-10.69A68.7,68.7,0,0,0,488.89,389a89.13,89.13,0,0,0-25.15-.08l11.15-34.29A12.48,12.48,0,0,1,486.77,346Z"/><path class="cls-1" d="M543.69,441.91c-121.23,16.18-195.65,63.62-225.91,80,8.52-5.5,39-39.54,132.6-83.77,35.12-16.59,65.66-29.09,92.53-38.38-.63,2.74-1.14,5.54-1.5,8.36-.15,1.21-.28,2.42-.39,3.65,0,.53-.09,1.08-.12,1.61-.13,2-.21,3.93-.21,5.91a86.79,86.79,0,0,0,2,18.43C543,439.14,543.3,440.54,543.69,441.91Z"/><path class="cls-1" d="M574.32,489.84c-31.37-4.17-99.49-6.92-213.67,18.34,0,0,51.37-34.44,192.89-43.52a87.81,87.81,0,0,0,18.81,21.68C573,487.52,573.63,488.69,574.32,489.84Z"/><path class="cls-1" d="M672.58,343.33a74.87,74.87,0,0,1-4.79,15.47c-.1.2-.19.41-.28.61a70.11,70.11,0,0,1-25.83,30A63.41,63.41,0,0,1,604,399.48a90,90,0,0,0,32.76-16.89,77.8,77.8,0,0,0,21.26-28,.25.25,0,0,0,0-.09,80,80,0,0,0,5-15.7l6.15,2.91Z"/><path class="cls-1" d="M716.94,401.57v0a69.23,69.23,0,0,1-15.46,21.64v0a70,70,0,0,1-10.32,8.14c-11.35,7.23-24.79,11-37.69,10.11a90.47,90.47,0,0,0,32.78-16.88,80.37,80.37,0,0,0,14.5-15.92,75.14,75.14,0,0,0,6.79-12.18,83.63,83.63,0,0,0,4.1-11.87,82.59,82.59,0,0,1,4.8,14.73Z"/><path class="cls-1" d="M718.65,419.59l-.22,4.07a68.85,68.85,0,0,1-.93,8.09,70.26,70.26,0,0,1-1.72,8l-.49,2c-.19.65-.43,1.29-.66,1.93l-1.34,3.84a86.45,86.45,0,0,1-7.16,14.5,83,83,0,0,1-22,23.42,81.58,81.58,0,0,1-29,13.06,85,85,0,0,1-15.67,2.1l-3.94.09c-1.31,0-2.63-.12-3.93-.18l-3.93-.24-3.89-.57c-1.27-.23-2.58-.32-3.84-.64l-3.81-.92a64.45,64.45,0,0,1-7.44-2.27,81.2,81.2,0,0,1-13.91-6.47l-.08,0-.07,0,0,0a2.59,2.59,0,0,1-.33-.19.2.2,0,0,1-.1-.08,83,83,0,0,1-11-7.89,77.73,77.73,0,0,1-17.48-21.38,71.94,71.94,0,0,1-5.44-12.46.07.07,0,0,1,0-.06s0,0,0,.06a84.58,84.58,0,0,0,16.28,20.95,85.28,85.28,0,0,0,10.28,8.05,77.17,77.17,0,0,0,11.29,6.22h0A86.63,86.63,0,0,0,611.37,487a62.66,62.66,0,0,0,6.76,1.35l3.41.48c1.12.18,2.27.18,3.41.27a75.88,75.88,0,0,0,26.82-3.14,70.84,70.84,0,0,0,40.63-32.18,69.92,69.92,0,0,0,8.48-24.6,49.1,49.1,0,0,0,.6-5.91v0c0-.18,0-.36,0-.54l.14-3.26c0-1.08-.11-2.17-.15-3.25l-.15-3.25-.44-3.25c0-.33-.09-.65-.14-1-.1-.75-.19-1.51-.33-2.24l-.74-3.17a24.51,24.51,0,0,0-.8-3.17l-1-3.1A57.48,57.48,0,0,0,695.5,391l-.61-1.52-.77-1.43-1.51-2.91a23.53,23.53,0,0,0-1.66-2.81l-1.76-2.74a26.52,26.52,0,0,0-1.93-2.63l-2-2.6c-1.4-1.66-3-3.2-4.41-4.83s-3.2-3-4.81-4.45l-4.84-3.74-3.7-1.88-5.66-2.85-3.84-2-5.68-2.9a73.29,73.29,0,0,0-38.79-2.16,72.18,72.18,0,0,0-35.36,18.92A74.22,74.22,0,0,0,558,404.37a79.81,79.81,0,0,0,2.17,42.81l-1.28-2.5-.63-1.21-.56-1.27-1.12-2.58-1-2.61c-.33-.89-.65-1.77-.91-2.67s-.58-1.79-.83-2.69c-.43-1.83-1-3.65-1.28-5.53a79,79,0,0,1-1.41-11.33c0-1.9-.14-3.82,0-5.73l.15-2.89.28-2.88A78,78,0,0,1,570,360.88a81.36,81.36,0,0,1,40.05-25.19,85,85,0,0,1,47.95.83l.41.12.72.33,3.88,1.83,6.15,2.91,3.38,1.62,6.22,3h0c.17.08.35.16.53.26a6.21,6.21,0,0,1,1,.6l0,0,.38.27a.23.23,0,0,1,.14.1,85.93,85.93,0,0,1,30.83,37.15,82.59,82.59,0,0,1,4.8,14.73l.5,2.19v0l.38,1.77c.24,1.32.37,2.67.57,4l.51,4.05.16,4.07C718.59,416.87,718.71,418.23,718.65,419.59Z"/></svg>