<svg id="Layer_1" data-name="Layer 1" xmlns="http://www.w3.org/2000/svg" viewBox="0 0 1000 1000"><defs><style>.cls-1{fill:#111424;}</style></defs><path class="cls-1" d="M265.23,555.7c-2.28-7.49-8.79-13.35-17.26-13.35-8.14,0-16.93,6.51-18.56,15-2,13.35,14.65,19.21,31.26,27.35S292.91,603.9,289,628c-4.56,29-32.25,50.48-60.58,50.48-22.14,0-42.34-12.7-47.22-34.2l27-11.4c4.23,11.4,10.42,19.54,24.42,19.54,12.38,0,24.43-8.47,26.71-21.49,1.3-8.14-2.28-12-8.14-16.61L224.85,599c-15.31-9.12-26.38-17.58-23.12-38.43,3.9-24.75,27-44.29,51.78-44.29,18.56,0,31.91,10.1,37.45,26.71Z"/><path class="cls-1" d="M424.81,564.17c-9.45-13.36-22.8-20.52-40.39-20.52-28.65,0-54.71,25.4-59.27,53.41-4.88,31.26,13.35,54.06,44.29,54.06,16.94,0,31.92-7.82,44.95-20.19l-6.19,37.45a94.3,94.3,0,0,1-43.64,10.1c-44.94,0-76.21-34.53-69-80.12,7.49-47.22,49.5-82.07,96.39-82.07,13.68,0,28.34,3.26,38.76,10.1Z"/><path class="cls-1" d="M585.36,597.38c-7.17,45.92-48.85,81.1-94.44,81.1s-75.56-35.18-68.39-81.1,48.52-81.09,94.11-81.09S592.52,551.47,585.36,597.38Zm-133.52,0c-4.56,28.66,14.65,53.09,43.64,53.09s56-24.43,60.57-53.09c4.56-29-14.66-53.08-43.64-53.08S456.4,568.4,451.84,597.38Z"/><path class="cls-1" d="M630,545.6h1c10.1-17.91,26.71-29.31,46.25-29.31a40.78,40.78,0,0,1,23.12,7.49l-17.59,26.71c-4.56-4.56-10.09-6.19-16.93-6.19-31.59,0-40.38,29.31-44.29,54.06l-11.73,74.91H580.47l24.1-152.42h29.31Z"/><path class="cls-1" d="M700.32,601.94c-3.91,26.06,9.77,50.48,37.78,50.48,22.47,0,36.47-11.4,50.48-29.63l22.47,14c-18.57,26.38-47.88,41.69-77.51,41.69-46.57,0-69-35.18-62.2-80.12,7.49-46.89,38.1-82.07,87.27-82.07,48.53,0,65.79,35.83,58.62,81.09l-.65,4.56Zm90.21-22.14c.33-22.8-12.38-38.1-35.82-38.1-22.8,0-42.34,16.28-49.51,38.1Z"/><path class="cls-1" d="M434.93,349.44q-14.51-21.65-43.21-26.7-29-5.1-52.23,11.21T310,380.88l19.94,3.5q6.07-23.73,21.64-34.71t35.51-7.47q19,3.33,29.82,18.31t7.79,32.54a52.61,52.61,0,0,1-11.93,25.12c-6.33,7.5-26.16,25.42-35,34.09-8.48,8.32-73.67,80.47-73.67,80.47h0c12.24-7.22,75.48-60,86.33-68.52s32.79-26.86,40.25-36.2A69.19,69.19,0,0,0,445,396.3Q449.43,371.1,434.93,349.44Z"/><path class="cls-1" d="M600,326.26h0l-94.4.16a31.45,31.45,0,0,0-29.64,21.12l-22.29,64.08q28.08-6.83,46.5-3.76a66.55,66.55,0,0,1,8.34,1.91q13.83-5.81,26.61-10.69A68.8,68.8,0,0,0,508.28,389a89.06,89.06,0,0,0-25.14-.08l11.15-34.29A12.46,12.46,0,0,1,506.16,346Z"/><path class="cls-1" d="M563.08,441.91c-121.22,16.18-195.64,63.62-225.9,80,8.52-5.5,38.95-39.54,132.59-83.77,35.12-16.59,65.66-29.09,92.54-38.38a80.33,80.33,0,0,0-1.5,8.36c-.15,1.21-.28,2.42-.39,3.65,0,.53-.09,1.08-.12,1.61-.13,2-.21,3.93-.21,5.91a86.79,86.79,0,0,0,2,18.43C562.36,439.14,562.7,440.54,563.08,441.91Z"/><path class="cls-1" d="M593.71,489.84c-31.36-4.17-99.48-6.92-213.66,18.34,0,0,51.37-34.44,192.88-43.52a88.22,88.22,0,0,0,18.81,21.68C592.37,487.52,593,488.69,593.71,489.84Z"/><path class="cls-1" d="M692,343.33a74.87,74.87,0,0,1-4.79,15.47l-.28.61a70,70,0,0,1-25.83,30,63.36,63.36,0,0,1-37.68,10.11,90.17,90.17,0,0,0,32.76-16.89,77.8,77.8,0,0,0,21.26-28l0-.09a80.6,80.6,0,0,0,5-15.7l6.15,2.91Z"/><path class="cls-1" d="M736.33,401.57v0a69,69,0,0,1-15.45,21.64v0a70.49,70.49,0,0,1-10.32,8.14c-11.36,7.23-24.79,11-37.69,10.11a90.55,90.55,0,0,0,32.78-16.88,80.32,80.32,0,0,0,14.49-15.92,73.66,73.66,0,0,0,6.79-12.18,81.2,81.2,0,0,0,4.1-11.87,82.63,82.63,0,0,1,4.81,14.73Z"/><path class="cls-1" d="M738.05,419.59l-.23,4.07a64.85,64.85,0,0,1-.93,8.09,68.15,68.15,0,0,1-1.72,8l-.49,2c-.19.65-.43,1.29-.65,1.93l-1.35,3.84a85.7,85.7,0,0,1-7.16,14.5,82.69,82.69,0,0,1-22,23.42,81.5,81.5,0,0,1-29,13.06,84.81,84.81,0,0,1-15.67,2.1l-3.94.09c-1.3,0-2.62-.12-3.93-.18l-3.92-.24-3.89-.57c-1.28-.23-2.58-.32-3.85-.64l-3.81-.92a64.45,64.45,0,0,1-7.44-2.27,81.56,81.56,0,0,1-13.91-6.47l-.08,0-.07,0,0,0a3.54,3.54,0,0,1-.33-.19s-.08,0-.09-.08a82.31,82.31,0,0,1-11-7.89,77.25,77.25,0,0,1-17.48-21.38,72.76,72.76,0,0,1-5.45-12.46.13.13,0,0,1,0-.06.14.14,0,0,0,0,.06A83.21,83.21,0,0,0,587,458.43a81.08,81.08,0,0,0,8.91,9.76,86,86,0,0,0,10.27,8.05,77.69,77.69,0,0,0,11.29,6.22h0A87,87,0,0,0,630.76,487a62.66,62.66,0,0,0,6.76,1.35l3.41.48c1.12.18,2.28.18,3.41.27a75.91,75.91,0,0,0,26.83-3.14,70.84,70.84,0,0,0,40.63-32.18,69.92,69.92,0,0,0,8.48-24.6,51.22,51.22,0,0,0,.6-5.91v0c0-.18,0-.36,0-.54l.13-3.26c0-1.08-.1-2.17-.14-3.25l-.15-3.25-.44-3.25c0-.33-.09-.65-.15-1-.09-.75-.18-1.51-.33-2.24l-.73-3.17a26.26,26.26,0,0,0-.8-3.17l-1-3.1A55.34,55.34,0,0,0,714.9,391l-.61-1.52-.78-1.43-1.5-2.91a25,25,0,0,0-1.67-2.81l-1.75-2.74a28.22,28.22,0,0,0-1.93-2.63l-2-2.6c-1.4-1.66-3-3.2-4.41-4.83s-3.19-3-4.8-4.45l-4.85-3.74-3.7-1.88-5.66-2.85-3.83-2-5.69-2.9a73.29,73.29,0,0,0-38.79-2.16,72.22,72.22,0,0,0-35.36,18.92,74.2,74.2,0,0,0-20.15,35.92,79.72,79.72,0,0,0,2.17,42.81l-1.28-2.5-.64-1.21-.56-1.27L576,439.62,575,437c-.33-.89-.65-1.77-.9-2.67s-.59-1.79-.84-2.69c-.43-1.83-1-3.65-1.28-5.53a80.45,80.45,0,0,1-1.41-11.33c0-1.9-.13-3.82,0-5.73l.14-2.89.28-2.88a78.06,78.06,0,0,1,18.47-42.41,81.33,81.33,0,0,1,40-25.19,85,85,0,0,1,48,.83l.41.12.72.33,3.87,1.83,6.15,2.91,3.38,1.62,6.22,3h0l.53.26a6.73,6.73,0,0,1,1,.6l0,0,.39.27a.24.24,0,0,1,.13.1A85.86,85.86,0,0,1,731,384.65a82.63,82.63,0,0,1,4.81,14.73l.49,2.19v0l.39,1.77c.24,1.32.37,2.67.57,4l.51,4.05.16,4.07C738,416.87,738.1,418.23,738.05,419.59Z"/></svg>