<svg id="Layer_1" data-name="Layer 1" xmlns="http://www.w3.org/2000/svg" viewBox="0 0 1000 1000"><defs><style>.cls-1{fill:#111424;}</style></defs><path class="cls-1" d="M222.77,501.55a9.55,9.55,0,0,0-9.07-7c-4.28,0-8.91,3.42-9.76,7.88-1,7,7.7,10.1,16.43,14.38s16.95,10.1,14.9,22.77c-2.4,15.23-17,26.53-31.85,26.53-11.64,0-22.25-6.67-24.82-18l14.21-6c2.22,6,5.48,10.28,12.84,10.28,6.51,0,12.84-4.45,14-11.3.68-4.28-1.2-6.34-4.28-8.73l-13.87-8c-8-4.79-13.87-9.25-12.16-20.2,2.06-13,14.21-23.29,27.23-23.29,9.75,0,16.77,5.31,19.68,14Z"/><path class="cls-1" d="M307.69,506c-5-7-12-10.78-21.23-10.78-15.07,0-28.77,13.35-31.16,28.07-2.57,16.44,7,28.42,23.28,28.42,8.9,0,16.78-4.11,23.63-10.61L299,560.79a49.58,49.58,0,0,1-22.94,5.3C252.39,566.09,236,548,239.72,524c3.94-24.83,26-43.15,50.67-43.15,7.19,0,14.9,1.72,20.38,5.31Z"/><path class="cls-1" d="M393.12,523.46c-3.77,24.14-25.68,42.63-49.65,42.63s-39.72-18.49-36-42.63S333,480.83,357,480.83,396.88,499.32,393.12,523.46Zm-70.2,0c-2.39,15.07,7.71,27.91,22.94,27.91s29.45-12.84,31.85-27.91c2.39-15.23-7.71-27.9-22.94-27.9S325.32,508.23,322.92,523.46Z"/><path class="cls-1" d="M417.6,496.24h.51c5.31-9.41,14-15.41,24.31-15.41a21.43,21.43,0,0,1,12.16,3.94l-9.25,14c-2.39-2.4-5.3-3.25-8.9-3.25-16.61,0-21.23,15.41-23.28,28.42L407,563.35h-15.4l12.66-80.12h15.41Z"/><path class="cls-1" d="M455.61,525.86c-2.06,13.7,5.13,26.54,19.86,26.54,11.81,0,19.17-6,26.53-15.58l11.82,7.36c-9.76,13.87-25.17,21.91-40.75,21.91-24.48,0-36.29-18.49-32.7-42.11,3.94-24.66,20-43.15,45.88-43.15,25.51,0,34.59,18.84,30.82,42.63l-.34,2.4ZM503,514.22c.17-12-6.5-20-18.83-20-12,0-22.26,8.56-26,20Z"/><path class="cls-1" d="M603.27,448.72q-9.57-14.28-28.52-17.62-19.14-3.36-34.47,7.4t-19.44,31L534,471.79q4-15.66,14.28-22.91T571.72,444A29.68,29.68,0,0,1,591.4,456a27.24,27.24,0,0,1,5.14,21.48,34.75,34.75,0,0,1-7.87,16.58c-4.18,5-17.27,16.78-23.1,22.5-5.6,5.49-48.63,53.11-48.63,53.11h0c8.08-4.77,49.82-39.62,57-45.23s21.64-17.72,26.57-23.89a45.72,45.72,0,0,0,9.44-20.93A41,41,0,0,0,603.27,448.72Z"/><path class="cls-1" d="M712.19,433.42h0l-62.31.11a20.76,20.76,0,0,0-19.56,13.94l-14.71,42.3q18.52-4.51,30.69-2.49a43,43,0,0,1,5.5,1.27q9.13-3.84,17.57-7.06a45.57,45.57,0,0,0-17.68-6.68,59.13,59.13,0,0,0-16.6-.05l7.36-22.63a8.22,8.22,0,0,1,7.84-5.68Z"/><path class="cls-1" d="M687.85,509.76c-80,10.67-129.12,42-149.09,52.81,5.62-3.62,25.71-26.09,87.51-55.28A612,612,0,0,1,687.34,482a55.87,55.87,0,0,0-1,5.52c-.09.8-.18,1.6-.25,2.4,0,.36-.06.72-.08,1.07-.09,1.29-.14,2.59-.14,3.9a57.34,57.34,0,0,0,1.3,12.16C687.38,507.93,687.6,508.85,687.85,509.76Z"/><path class="cls-1" d="M708.07,541.39c-20.7-2.75-65.66-4.57-141,12.11,0,0,33.91-22.73,127.31-28.73a58,58,0,0,0,12.41,14.31C707.18,539.86,707.62,540.63,708.07,541.39Z"/><path class="cls-1" d="M772.92,444.69a48.46,48.46,0,0,1-3.16,10.21l-.18.41a46.27,46.27,0,0,1-17.05,19.77,41.85,41.85,0,0,1-24.87,6.68,59.91,59.91,0,0,0,21.62-11.15,51.45,51.45,0,0,0,14-18.48l0-.06a52.91,52.91,0,0,0,3.29-10.36l4.06,1.91Z"/><path class="cls-1" d="M802.2,483.13h0A45.5,45.5,0,0,1,792,497.43h0a46.82,46.82,0,0,1-6.81,5.38,41.84,41.84,0,0,1-24.87,6.67A59.8,59.8,0,0,0,782,498.34a52.88,52.88,0,0,0,9.57-10.5,49,49,0,0,0,4.48-8,53.63,53.63,0,0,0,2.7-7.83,54.43,54.43,0,0,1,3.18,9.72Z"/><path class="cls-1" d="M803.33,495l-.14,2.69a45.72,45.72,0,0,1-.62,5.34,45.18,45.18,0,0,1-1.13,5.26l-.33,1.3c-.12.43-.28.85-.43,1.27l-.89,2.54a56.72,56.72,0,0,1-4.72,9.57,54.84,54.84,0,0,1-14.54,15.46,53.79,53.79,0,0,1-19.12,8.62,55.84,55.84,0,0,1-10.35,1.38l-2.6.07c-.86,0-1.73-.08-2.59-.13l-2.59-.16-2.57-.37c-.84-.15-1.7-.21-2.54-.43l-2.51-.6a42.12,42.12,0,0,1-4.91-1.5,52.69,52.69,0,0,1-9.18-4.27l-.06,0,0,0,0,0-.22-.12s-.05,0-.06,0a54.57,54.57,0,0,1-7.27-5.21,49.25,49.25,0,0,1-6.43-6.57,49.74,49.74,0,0,1-5.11-7.54,47.94,47.94,0,0,1-3.59-8.23,0,0,0,0,1,0,0l0,0a55.56,55.56,0,0,0,10.74,13.83,56.76,56.76,0,0,0,6.79,5.32,51.46,51.46,0,0,0,7.45,4.1h0a57.29,57.29,0,0,0,8.75,3,40.65,40.65,0,0,0,4.47.9l2.25.31c.73.12,1.5.12,2.25.18a50.21,50.21,0,0,0,17.7-2.07A46.75,46.75,0,0,0,786,517.58a46,46,0,0,0,5.59-16.24,32,32,0,0,0,.4-3.9h0c0-.12,0-.24,0-.36l.09-2.15c0-.71-.07-1.43-.1-2.15l-.1-2.14-.29-2.14-.09-.65c-.06-.5-.13-1-.22-1.48l-.49-2.09a16,16,0,0,0-.52-2.09l-.66-2.05a36.27,36.27,0,0,0-1.58-4l-.4-1-.51-.95-1-1.91a15.93,15.93,0,0,0-1.1-1.86l-1.16-1.81a19.86,19.86,0,0,0-1.27-1.74l-1.32-1.71c-.92-1.1-1.95-2.11-2.91-3.19s-2.11-1.95-3.17-2.93l-3.2-2.47-2.44-1.24-3.74-1.88-2.53-1.3-3.75-1.92a48.27,48.27,0,0,0-25.6-1.42,47.62,47.62,0,0,0-23.34,12.48A49,49,0,0,0,697.32,485a52.65,52.65,0,0,0,1.43,28.26l-.85-1.65-.42-.8-.37-.84-.73-1.7-.66-1.73c-.22-.58-.43-1.16-.6-1.76s-.39-1.18-.55-1.78c-.29-1.2-.65-2.4-.85-3.64a54.79,54.79,0,0,1-.93-7.48c0-1.26-.09-2.52,0-3.79l.1-1.9.18-1.9a51.55,51.55,0,0,1,12.19-28,53.69,53.69,0,0,1,26.43-16.62,56,56,0,0,1,31.65.55l.27.07.48.22,2.55,1.22,4.06,1.91,2.23,1.07,4.11,2h0l.35.17a4.44,4.44,0,0,1,.63.39l0,0,.26.18a.16.16,0,0,1,.08.06A56.68,56.68,0,0,1,798.7,472a54.43,54.43,0,0,1,3.18,9.72l.32,1.44h0l.26,1.17c.15.87.24,1.77.37,2.66l.34,2.67.1,2.69C803.29,493.23,803.37,494.13,803.33,495Z"/></svg>